<svg width="13" height="13" viewBox="0 0 13 13" fill="none" xmlns="http://www.w3.org/2000/svg">
<path fill-rule="evenodd" clip-rule="evenodd" d="M11.9075 1.67365C11.9554 1.62576 11.9934 1.56892 12.0193 1.50635C12.0452 1.44379 12.0586 1.37673 12.0586 1.30902C12.0586 1.2413 12.0452 1.17424 12.0193 1.11168C11.9934 1.04912 11.9554 0.992269 11.9075 0.944385C11.8597 0.896501 11.8028 0.858518 11.7403 0.832603C11.6777 0.806688 11.6106 0.79335 11.5429 0.79335C11.4752 0.79335 11.4081 0.806688 11.3456 0.832603C11.283 0.858518 11.2262 0.896501 11.1783 0.944385L6.39275 5.73094L1.60723 0.944385C1.55934 0.896501 1.5025 0.858518 1.43993 0.832603C1.37737 0.806688 1.31031 0.79335 1.2426 0.79335C1.17488 0.79335 1.10782 0.806688 1.04526 0.832603C0.982695 0.858518 0.925848 0.896501 0.877964 0.944385C0.83008 0.992269 0.792096 1.04912 0.766182 1.11168C0.740267 1.17424 0.726929 1.2413 0.726929 1.30902C0.726929 1.37673 0.740267 1.44379 0.766182 1.50635C0.792096 1.56892 0.83008 1.62576 0.877964 1.67365L5.66452 6.45918L0.877964 11.2447C0.781258 11.3414 0.726929 11.4726 0.726929 11.6093C0.726929 11.7461 0.781258 11.8773 0.877964 11.974C0.97467 12.0707 1.10583 12.125 1.2426 12.125C1.37936 12.125 1.51052 12.0707 1.60723 11.974L6.39275 7.18741L11.1783 11.974C11.275 12.0707 11.4061 12.125 11.5429 12.125C11.6797 12.125 11.8108 12.0707 11.9075 11.974C12.0043 11.8773 12.0586 11.7461 12.0586 11.6093C12.0586 11.4726 12.0043 11.3414 11.9075 11.2447L7.12099 6.45918L11.9075 1.67365Z" fill="#909294"/>
</svg>
