<svg width="28" height="29" viewBox="0 0 28 29" fill="none" xmlns="http://www.w3.org/2000/svg">
<rect x="0.5" y="1" width="27" height="27" rx="13.5" fill="white"/>
<g clip-path="url(#clip0_108_12)">
<path fill-rule="evenodd" clip-rule="evenodd" d="M19.3782 9.61115C19.4261 9.56326 19.4641 9.50642 19.49 9.44385C19.5159 9.38129 19.5293 9.31423 19.5293 9.24652C19.5293 9.1788 19.5159 9.11174 19.49 9.04918C19.4641 8.98662 19.4261 8.92977 19.3782 8.88189C19.3304 8.834 19.2735 8.79602 19.211 8.7701C19.1484 8.74419 19.0813 8.73085 19.0136 8.73085C18.9459 8.73085 18.8788 8.74419 18.8163 8.7701C18.7537 8.79602 18.6969 8.834 18.649 8.88189L13.8635 13.6684L9.07793 8.88189C9.03005 8.834 8.9732 8.79602 8.91064 8.7701C8.84807 8.74419 8.78102 8.73085 8.7133 8.73085C8.64558 8.73085 8.57852 8.74419 8.51596 8.7701C8.4534 8.79602 8.39655 8.834 8.34867 8.88189C8.30078 8.92977 8.2628 8.98662 8.23688 9.04918C8.21097 9.11174 8.19763 9.1788 8.19763 9.24652C8.19763 9.31423 8.21097 9.38129 8.23688 9.44385C8.2628 9.50642 8.30078 9.56326 8.34867 9.61115L13.1352 14.3967L8.34867 19.1822C8.25196 19.2789 8.19763 19.4101 8.19763 19.5468C8.19763 19.6836 8.25196 19.8148 8.34867 19.9115C8.44537 20.0082 8.57654 20.0625 8.7133 20.0625C8.85006 20.0625 8.98122 20.0082 9.07793 19.9115L13.8635 15.1249L18.649 19.9115C18.7457 20.0082 18.8769 20.0625 19.0136 20.0625C19.1504 20.0625 19.2815 20.0082 19.3782 19.9115C19.475 19.8148 19.5293 19.6836 19.5293 19.5468C19.5293 19.4101 19.475 19.2789 19.3782 19.1822L14.5917 14.3967L19.3782 9.61115Z" fill="#909294"/>
</g>
<rect x="0.5" y="1" width="27" height="27" rx="13.5" stroke="#909294"/>
<defs>
<clipPath id="clip0_108_12">
<rect width="12" height="12" fill="white" transform="translate(8 8.5)"/>
</clipPath>
</defs>
</svg>
